<svg width="319" height="319" viewBox="0 0 319 319" fill="none" xmlns="http://www.w3.org/2000/svg">
<path d="M171.522 159.981C171.522 166.62 166.14 172.003 159.5 172.003C152.86 172.003 147.478 166.62 147.478 159.981C147.478 153.341 152.86 147.959 159.5 147.959C166.14 147.959 171.522 153.341 171.522 159.981Z" fill="white"/>
<path d="M183.544 113.816C183.544 127.096 172.779 137.86 159.5 137.86C146.221 137.86 135.456 127.096 135.456 113.816C135.456 100.537 146.221 89.7725 159.5 89.7725C172.779 89.7725 183.544 100.537 183.544 113.816Z" fill="white"/>
<path d="M113.336 134.975C126.615 134.975 137.38 145.74 137.38 159.019C137.38 172.298 126.615 183.063 113.336 183.063C100.056 183.063 89.2916 172.298 89.2916 159.019C89.2916 145.74 100.056 134.975 113.336 134.975Z" fill="white"/>
<path d="M134.494 205.184C134.494 191.904 145.259 181.14 158.538 181.14C171.817 181.14 182.582 191.904 182.582 205.184C182.582 218.463 171.817 229.227 158.538 229.227C145.259 229.227 134.494 218.463 134.494 205.184Z" fill="white"/>
<path d="M204.703 184.025C191.424 184.025 180.659 173.26 180.659 159.981C180.659 146.702 191.424 135.937 204.703 135.937C217.982 135.937 228.747 146.702 228.747 159.981C228.747 173.26 217.982 184.025 204.703 184.025Z" fill="white"/>
<path d="M134.494 66.6903C134.494 70.4084 131.48 73.4226 127.762 73.4226C124.044 73.4226 121.03 70.4084 121.03 66.6903C121.03 62.9721 124.044 59.958 127.762 59.958C131.48 59.958 134.494 62.9721 134.494 66.6903Z" fill="white"/>
<path d="M107.015 78.8113C108.164 82.3475 106.229 86.1456 102.692 87.2945C99.1562 88.4435 95.3582 86.5083 94.2092 82.9721C93.0602 79.436 94.9954 75.6379 98.5316 74.4889C102.068 73.34 105.866 75.2752 107.015 78.8113Z" fill="white"/>
<path d="M84.6259 98.8307C86.8114 101.839 86.1446 106.049 83.1365 108.234C80.1285 110.42 75.9183 109.753 73.7328 106.745C71.5473 103.737 72.2141 99.5268 75.2222 97.3413C78.2302 95.1558 82.4404 95.8227 84.6259 98.8307Z" fill="white"/>
<path d="M69.5191 124.789C72.5272 126.974 73.194 131.185 71.0085 134.193C68.8231 137.201 64.6129 137.867 61.6048 135.682C58.5968 133.496 57.9299 129.286 60.1154 126.278C62.3009 123.27 66.5111 122.603 69.5191 124.789Z" fill="white"/>
<path d="M63.1732 154.145C66.7094 155.294 68.6446 159.092 67.4956 162.628C66.3467 166.164 62.5486 168.099 59.0124 166.95C55.4763 165.801 53.5411 162.003 54.69 158.467C55.839 154.931 59.6371 152.996 63.1732 154.145Z" fill="white"/>
<path d="M66.2094 184.025C69.9275 184.025 72.9417 187.039 72.9417 190.757C72.9417 194.475 69.9275 197.489 66.2094 197.489C62.4912 197.489 59.4771 194.475 59.4771 190.757C59.4771 187.039 62.4912 184.025 66.2094 184.025Z" fill="white"/>
<path d="M78.3304 211.504C81.8666 210.355 85.6647 212.291 86.8136 215.827C87.9626 219.363 86.0274 223.161 82.4912 224.31C78.955 225.459 75.157 223.524 74.008 219.987C72.859 216.451 74.7942 212.653 78.3304 211.504Z" fill="white"/>
<path d="M98.3498 233.893C101.358 231.708 105.568 232.375 107.754 235.383C109.939 238.391 109.272 242.601 106.264 244.786C103.256 246.972 99.0459 246.305 96.8604 243.297C94.6749 240.289 95.3418 236.079 98.3498 233.893Z" fill="white"/>
<path d="M124.308 249C126.493 245.992 130.704 245.325 133.712 247.511C136.72 249.696 137.387 253.906 135.201 256.914C133.016 259.922 128.805 260.589 125.797 258.404C122.789 256.218 122.122 252.008 124.308 249Z" fill="white"/>
<path d="M153.664 255.346C154.813 251.81 158.611 249.874 162.147 251.023C165.683 252.172 167.618 255.97 166.469 259.507C165.32 263.043 161.522 264.978 157.986 263.829C154.45 262.68 152.515 258.882 153.664 255.346Z" fill="white"/>
<path d="M183.544 252.31C183.544 248.592 186.558 245.577 190.276 245.577C193.994 245.577 197.009 248.592 197.009 252.31C197.009 256.028 193.994 259.042 190.276 259.042C186.558 259.042 183.544 256.028 183.544 252.31Z" fill="white"/>
<path d="M211.023 240.189C209.874 236.652 211.81 232.854 215.346 231.705C218.882 230.556 222.68 232.492 223.829 236.028C224.978 239.564 223.043 243.362 219.507 244.511C215.97 245.66 212.172 243.725 211.023 240.189Z" fill="white"/>
<path d="M233.412 220.169C231.227 217.161 231.894 212.951 234.902 210.766C237.91 208.58 242.12 209.247 244.305 212.255C246.491 215.263 245.824 219.473 242.816 221.659C239.808 223.844 235.598 223.177 233.412 220.169Z" fill="white"/>
<path d="M248.519 194.211C245.511 192.026 244.844 187.816 247.03 184.807C249.215 181.799 253.425 181.133 256.433 183.318C259.441 185.504 260.108 189.714 257.923 192.722C255.737 195.73 251.527 196.397 248.519 194.211Z" fill="white"/>
<path d="M254.865 164.855C251.329 163.706 249.394 159.908 250.543 156.372C251.692 152.836 255.49 150.901 259.026 152.05C262.562 153.199 264.497 156.997 263.348 160.533C262.199 164.069 258.401 166.004 254.865 164.855Z" fill="white"/>
<path d="M251.829 134.975C248.111 134.975 245.097 131.961 245.097 128.243C245.097 124.525 248.111 121.511 251.829 121.511C255.547 121.511 258.561 124.525 258.561 128.243C258.561 131.961 255.547 134.975 251.829 134.975Z" fill="white"/>
<path d="M239.708 107.496C236.172 108.645 232.374 106.709 231.225 103.173C230.076 99.6371 232.011 95.8391 235.547 94.6901C239.083 93.5411 242.881 95.4763 244.03 99.0125C245.179 102.549 243.244 106.347 239.708 107.496Z" fill="white"/>
<path d="M219.688 85.1068C216.68 87.2923 212.47 86.6255 210.285 83.6174C208.099 80.6094 208.766 76.3992 211.774 74.2137C214.782 72.0282 218.992 72.6951 221.178 75.7031C223.363 78.7112 222.696 82.9213 219.688 85.1068Z" fill="white"/>
<path d="M193.73 70C191.545 73.008 187.335 73.6749 184.327 71.4894C181.319 69.3039 180.652 65.0937 182.837 62.0857C185.023 59.0776 189.233 58.4108 192.241 60.5963C195.249 62.7818 195.916 66.992 193.73 70Z" fill="white"/>
<path d="M164.374 63.6541C163.225 67.1903 159.427 69.1255 155.891 67.9766C152.355 66.8276 150.42 63.0295 151.569 59.4933C152.718 55.9572 156.516 54.022 160.052 55.1709C163.588 56.3199 165.523 60.118 164.374 63.6541Z" fill="white"/>
<path d="M79.1931 63.805C79.1931 67.2576 76.3943 70.0564 72.9417 70.0564C69.4891 70.0564 66.6903 67.2576 66.6903 63.805C66.6903 60.3524 69.4891 57.5536 72.9417 57.5536C76.3943 57.5536 79.1931 60.3524 79.1931 63.805Z" fill="#7BE3F0"/>
<path d="M53.5522 93.3049C54.6192 96.5885 52.8222 100.115 49.5386 101.182C46.255 102.249 42.7282 100.452 41.6613 97.1685C40.5944 93.8849 42.3914 90.3581 45.675 89.2912C48.9586 88.2243 52.4853 90.0213 53.5522 93.3049Z" fill="#7BE3F0"/>
<path d="M38.2823 129.284C40.3117 132.077 39.6925 135.987 36.8993 138.016C34.1061 140.046 30.1966 139.426 28.1673 136.633C26.1379 133.84 26.7571 129.931 29.5503 127.901C32.3435 125.872 36.2529 126.491 38.2823 129.284Z" fill="#7BE3F0"/>
<path d="M34.8779 168.221C37.6711 170.251 38.2903 174.16 36.2609 176.954C34.2316 179.747 30.3221 180.366 27.5289 178.337C24.7357 176.307 24.1165 172.398 26.1459 169.605C28.1753 166.811 32.0847 166.192 34.8779 168.221Z" fill="#7BE3F0"/>
<path d="M43.6725 206.305C46.956 207.372 48.753 210.899 47.6861 214.182C46.6192 217.466 43.0924 219.263 39.8088 218.196C36.5253 217.129 34.7283 213.602 35.7952 210.319C36.8621 207.035 40.3889 205.238 43.6725 206.305Z" fill="#7BE3F0"/>
<path d="M63.805 239.807C67.2576 239.807 70.0564 242.606 70.0564 246.058C70.0564 249.511 67.2576 252.31 63.805 252.31C60.3524 252.31 57.5536 249.511 57.5536 246.058C57.5536 242.606 60.3524 239.807 63.805 239.807Z" fill="#7BE3F0"/>
<path d="M93.3048 265.448C96.5884 264.381 100.115 266.178 101.182 269.461C102.249 272.745 100.452 276.272 97.1684 277.339C93.8848 278.405 90.3581 276.609 89.2912 273.325C88.2243 270.041 90.0212 266.515 93.3048 265.448Z" fill="#7BE3F0"/>
<path d="M129.284 280.718C132.077 278.688 135.987 279.307 138.016 282.101C140.046 284.894 139.426 288.803 136.633 290.833C133.84 292.862 129.931 292.243 127.901 289.45C125.872 286.656 126.491 282.747 129.284 280.718Z" fill="#7BE3F0"/>
<path d="M168.221 284.122C170.251 281.329 174.16 280.71 176.954 282.739C179.747 284.768 180.366 288.678 178.337 291.471C176.307 294.264 172.398 294.883 169.605 292.854C166.811 290.825 166.192 286.915 168.221 284.122Z" fill="#7BE3F0"/>
<path d="M206.305 275.327C207.372 272.044 210.899 270.247 214.182 271.314C217.466 272.381 219.263 275.907 218.196 279.191C217.129 282.475 213.602 284.272 210.319 283.205C207.035 282.138 205.238 278.611 206.305 275.327Z" fill="#7BE3F0"/>
<path d="M239.807 255.195C239.807 251.742 242.606 248.944 246.058 248.944C249.511 248.944 252.31 251.742 252.31 255.195C252.31 258.648 249.511 261.446 246.058 261.446C242.606 261.446 239.807 258.648 239.807 255.195Z" fill="#7BE3F0"/>
<path d="M265.448 225.695C264.381 222.412 266.178 218.885 269.461 217.818C272.745 216.751 276.272 218.548 277.339 221.832C278.406 225.115 276.609 228.642 273.325 229.709C270.041 230.776 266.515 228.979 265.448 225.695Z" fill="#7BE3F0"/>
<path d="M280.718 189.716C278.688 186.923 279.308 183.013 282.101 180.984C284.894 178.954 288.803 179.574 290.833 182.367C292.862 185.16 292.243 189.069 289.45 191.099C286.657 193.128 282.747 192.509 280.718 189.716Z" fill="#7BE3F0"/>
<path d="M284.122 150.779C281.329 148.749 280.71 144.84 282.739 142.046C284.768 139.253 288.678 138.634 291.471 140.663C294.264 142.693 294.883 146.602 292.854 149.395C290.825 152.189 286.915 152.808 284.122 150.779Z" fill="#7BE3F0"/>
<path d="M275.328 112.695C272.044 111.628 270.247 108.101 271.314 104.818C272.381 101.534 275.908 99.7372 279.191 100.804C282.475 101.871 284.272 105.398 283.205 108.681C282.138 111.965 278.611 113.762 275.328 112.695Z" fill="#7BE3F0"/>
<path d="M255.195 79.1932C251.742 79.1932 248.944 76.3943 248.944 72.9417C248.944 69.4892 251.742 66.6903 255.195 66.6903C258.648 66.6903 261.446 69.4892 261.446 72.9417C261.446 76.3943 258.648 79.1932 255.195 79.1932Z" fill="#7BE3F0"/>
<path d="M225.695 53.5523C222.412 54.6192 218.885 52.8222 217.818 49.5386C216.751 46.255 218.548 42.7282 221.832 41.6613C225.115 40.5944 228.642 42.3914 229.709 45.675C230.776 48.9586 228.979 52.4854 225.695 53.5523Z" fill="#7BE3F0"/>
<path d="M189.716 38.2823C186.923 40.3117 183.013 39.6925 180.984 36.8993C178.954 34.1061 179.574 30.1966 182.367 28.1673C185.16 26.1379 189.069 26.7571 191.099 29.5503C193.128 32.3435 192.509 36.2529 189.716 38.2823Z" fill="#7BE3F0"/>
<path d="M150.779 34.878C148.749 37.6712 144.84 38.2904 142.046 36.261C139.253 34.2316 138.634 30.3222 140.663 27.529C142.693 24.7358 146.602 24.1166 149.395 26.146C152.189 28.1753 152.808 32.0848 150.779 34.878Z" fill="#7BE3F0"/>
<path d="M112.695 43.6725C111.628 46.9561 108.101 48.753 104.818 47.6861C101.534 46.6192 99.7372 43.0925 100.804 39.8089C101.871 36.5253 105.398 34.7283 108.681 35.7952C111.965 36.8621 113.762 40.3889 112.695 43.6725Z" fill="#7BE3F0"/>
<path d="M50.3404 54.6683C50.3404 57.5897 47.9721 59.958 45.0507 59.958C42.1293 59.958 39.761 57.5897 39.761 54.6683C39.761 51.7469 42.1293 49.3786 45.0507 49.3786C47.9721 49.3786 50.3404 51.7469 50.3404 54.6683Z" fill="#26466F"/>
<path d="M23.2883 93.5313C24.191 96.3097 22.6705 99.2939 19.8921 100.197C17.1137 101.099 14.1295 99.5789 13.2267 96.8005C12.3239 94.0221 13.8445 91.0379 16.6229 90.1351C19.4013 89.2324 22.3855 90.7529 23.2883 93.5313Z" fill="#26466F"/>
<path d="M9.56948 138.852C11.2866 141.215 10.7627 144.523 8.39924 146.24C6.03577 147.958 2.72777 147.434 1.01061 145.07C-0.706546 142.707 -0.18261 139.399 2.18086 137.682C4.54432 135.964 7.85232 136.488 9.56948 138.852Z" fill="#26466F"/>
<path d="M10.5269 186.193C12.8904 187.911 13.4144 191.219 11.6972 193.582C9.98003 195.946 6.67203 196.469 4.30857 194.752C1.9451 193.035 1.42116 189.727 3.13832 187.364C4.85548 185 8.16348 184.476 10.5269 186.193Z" fill="#26466F"/>
<path d="M26.0669 230.922C28.8454 231.825 30.3659 234.809 29.4631 237.588C28.5604 240.366 25.5762 241.886 22.7977 240.984C20.0193 240.081 18.4988 237.097 19.4016 234.318C20.3043 231.54 23.2885 230.019 26.0669 230.922Z" fill="#26466F"/>
<path d="M54.6683 268.66C57.5897 268.66 59.958 271.028 59.958 273.949C59.958 276.871 57.5897 279.239 54.6683 279.239C51.7469 279.239 49.3786 276.871 49.3786 273.949C49.3786 271.028 51.7469 268.66 54.6683 268.66Z" fill="#26466F"/>
<path d="M93.5313 295.712C96.3097 294.809 99.2939 296.329 100.197 299.108C101.099 301.886 99.5789 304.87 96.8005 305.773C94.0221 306.676 91.0379 305.155 90.1351 302.377C89.2324 299.599 90.7529 296.614 93.5313 295.712Z" fill="#26466F"/>
<path d="M138.852 309.431C141.215 307.713 144.523 308.237 146.24 310.601C147.958 312.964 147.434 316.272 145.07 317.989C142.707 319.707 139.399 319.183 137.682 316.819C135.964 314.456 136.488 311.148 138.852 309.431Z" fill="#26466F"/>
<path d="M186.193 308.473C187.911 306.11 191.219 305.586 193.582 307.303C195.946 309.02 196.469 312.328 194.752 314.691C193.035 317.055 189.727 317.579 187.364 315.862C185 314.145 184.476 310.837 186.193 308.473Z" fill="#26466F"/>
<path d="M230.922 292.933C231.825 290.155 234.809 288.634 237.588 289.537C240.366 290.44 241.887 293.424 240.984 296.202C240.081 298.981 237.097 300.501 234.318 299.598C231.54 298.696 230.019 295.712 230.922 292.933Z" fill="#26466F"/>
<path d="M268.66 264.332C268.66 261.41 271.028 259.042 273.949 259.042C276.871 259.042 279.239 261.41 279.239 264.332C279.239 267.253 276.871 269.621 273.949 269.621C271.028 269.621 268.66 267.253 268.66 264.332Z" fill="#26466F"/>
<path d="M295.712 225.469C294.809 222.69 296.329 219.706 299.108 218.803C301.886 217.901 304.871 219.421 305.773 222.199C306.676 224.978 305.156 227.962 302.377 228.865C299.599 229.768 296.615 228.247 295.712 225.469Z" fill="#26466F"/>
<path d="M309.431 180.148C307.713 177.785 308.237 174.477 310.601 172.76C312.964 171.042 316.272 171.566 317.989 173.93C319.707 176.293 319.183 179.601 316.819 181.318C314.456 183.036 311.148 182.512 309.431 180.148Z" fill="#26466F"/>
<path d="M308.473 132.807C306.11 131.089 305.586 127.781 307.303 125.418C309.02 123.054 312.328 122.531 314.691 124.248C317.055 125.965 317.579 129.273 315.862 131.636C314.145 134 310.837 134.524 308.473 132.807Z" fill="#26466F"/>
<path d="M292.933 88.0778C290.155 87.175 288.634 84.1908 289.537 81.4124C290.44 78.634 293.424 77.1135 296.202 78.0163C298.981 78.919 300.501 81.9032 299.598 84.6816C298.696 87.46 295.711 88.9806 292.933 88.0778Z" fill="#26466F"/>
<path d="M264.332 50.3404C261.41 50.3404 259.042 47.9721 259.042 45.0507C259.042 42.1293 261.41 39.7611 264.332 39.7611C267.253 39.7611 269.621 42.1293 269.621 45.0507C269.621 47.9721 267.253 50.3404 264.332 50.3404Z" fill="#26466F"/>
<path d="M225.469 23.2883C222.69 24.191 219.706 22.6705 218.803 19.8921C217.901 17.1137 219.421 14.1295 222.2 13.2267C224.978 12.3239 227.962 13.8445 228.865 16.6229C229.768 19.4013 228.247 22.3855 225.469 23.2883Z" fill="#26466F"/>
<path d="M180.148 9.56948C177.785 11.2866 174.477 10.7627 172.76 8.39924C171.042 6.03577 171.566 2.72777 173.93 1.01061C176.293 -0.706546 179.601 -0.18261 181.318 2.18086C183.036 4.54432 182.512 7.85232 180.148 9.56948Z" fill="#26466F"/>
<path d="M132.807 10.527C131.089 12.8904 127.781 13.4144 125.418 11.6972C123.054 9.98006 122.531 6.67206 124.248 4.30859C125.965 1.94513 129.273 1.42119 131.636 3.13835C134 4.85551 134.524 8.16351 132.807 10.527Z" fill="#26466F"/>
<path d="M88.0778 26.067C87.175 28.8454 84.1908 30.3659 81.4124 29.4631C78.634 28.5604 77.1135 25.5762 78.0163 22.7978C78.919 20.0193 81.9032 18.4988 84.6816 19.4016C87.46 20.3043 88.9806 23.2885 88.0778 26.067Z" fill="#26466F"/>
</svg>
