<svg width="24" height="25" viewBox="0 0 24 25" fill="none" xmlns="http://www.w3.org/2000/svg">
<g id="Social Icons">
<path id="Vector" d="M24 12.8241C24 16.003 23.4672 18.5817 22.8097 18.5817C22.1522 18.5817 21.6196 16.0037 21.6196 12.8241C21.6196 9.64438 22.1525 7.06641 22.8097 7.06641C23.467 7.06641 24 9.64415 24 12.8241Z" fill="white"/>
<path id="Vector_2" d="M20.9628 12.8241C20.9628 16.373 19.4476 19.2511 17.5784 19.2511C15.7092 19.2511 14.194 16.373 14.194 12.8241C14.194 9.27511 15.709 6.39697 17.5782 6.39697C19.4473 6.39697 20.9626 9.27419 20.9626 12.8241" fill="white"/>
<path id="Vector_3" d="M13.5374 12.8241C13.5374 16.5944 10.5069 19.6508 6.76884 19.6508C3.03073 19.6508 0 16.5937 0 12.8241C0 9.05443 3.0305 5.99707 6.76884 5.99707C10.5072 5.99707 13.5374 9.05373 13.5374 12.8241Z" fill="white"/>
</g>
</svg>
